<svg xmlns="http://www.w3.org/2000/svg" width="512" height="512" viewBox="0 0 512 512">
  <g fill="none" fill-rule="evenodd">
    <circle cx="256" cy="256" r="256" fill="#239AB9"/>
    <g fill="#FFFFFF" fill-rule="nonzero" transform="translate(110 106)">
      <rect width="45" height="15" x="54" y="193" transform="rotate(-130.734 76.5 200.5)"/>
      <rect width="66" height="15" x="52" y="79" transform="rotate(-49.286 85 86.5)"/>
      <path d="M219.50309,107.31835 C219.682661,106.813507 219.89216,106.319883 220.131588,105.841218 C220.232597,105.635541 220.333606,105.433604 220.445838,105.235406 C220.816203,104.595939 221.220237,103.975169 221.706576,103.399275 L234.620723,87.9959613 C234.639428,87.9735238 234.661874,87.9548259 234.676839,87.936128 C235.151954,87.3789312 235.679443,86.8890468 236.218156,86.4365581 C236.401468,86.2869751 236.58478,86.1411316 236.768092,86.0027673 C237.243207,85.6475076 237.740769,85.3296436 238.249553,85.0491754 C238.384231,84.9743839 238.507686,84.8846341 238.646106,84.8135821 C243.038113,82.6147115 248.515028,83.0672002 252.514224,86.4178602 L283.38547,112.291986 L293,100.833925 L262.128754,74.95606 C255.574413,69.4701021 247.198174,67.5479601 239.375613,68.9652593 L153.432188,8.10740062 C147.551239,3.06645226 139.930695,0 131.591867,0 C119.410968,0 108.756422,6.52929958 102.856767,16.2484574 L7.86371297,127.418571 C3.10882278,132.97932 0.602311032,139.695599 0.168347804,146.490408 C0.0523748723,147.70951 -0.0149642492,148.928611 0.00374106231,150.155192 C0.00374106231,150.170151 0,150.192588 0,150.211286 C0,160.13986 4.45560521,169.032572 11.4588739,175.049549 L60.0777196,231.950937 C31.462334,235.462399 9.18056691,260.719494 9.18056691,291.305486 L9.18056691,300 L24.1448161,300 L24.1448161,291.305486 C24.1448161,266.57567 43.3252426,246.453012 66.8976762,246.453012 L133.806576,246.453012 C157.379009,246.453012 176.559436,266.57567 176.559436,291.305486 L176.559436,300 L191.523685,300 L191.523685,291.305486 C191.523685,262.940803 172.354482,239.179537 146.74691,233.06533 L75.0307457,149.134288 L142.852464,69.761789 L203.857967,112.953891 C203.872932,113.297932 203.865449,113.641973 203.895378,113.982274 C204.546323,121.352979 208.018029,128.016903 213.667033,132.751206 L244.54202,158.625332 L254.15655,147.167271 L223.277822,121.289406 C220.692748,119.124191 219.099055,116.065218 218.79977,112.673423 C218.661351,111.057926 218.840922,109.472346 219.282367,107.965297 C219.342224,107.740922 219.424528,107.531506 219.50309,107.31835 Z M223.281563,78.2431472 C223.23667,78.2917617 223.195518,78.3291575 223.150626,78.3815115 L210.232737,93.7885644 C209.376034,94.8094686 208.631563,95.8976852 207.939466,97.0120788 C207.864645,97.1280057 207.771118,97.2289742 207.703779,97.3449011 L153.551902,59.0030291 C160.413011,53.0683221 164.834946,44.4261621 165.160419,34.7406604 L224.57597,76.8146292 C224.130784,77.2708575 223.700562,77.7532628 223.281563,78.2431472 Z M131.591867,14.9583037 C141.879788,14.9583037 150.252285,23.3237351 150.252285,33.6113085 C150.252285,43.8951423 141.879788,52.2605737 131.591867,52.2605737 C121.303945,52.2605737 112.931448,43.8951423 112.931448,33.6113085 C112.927707,23.3237351 121.303945,14.9583037 131.591867,14.9583037 Z M46.0412538,160.016454 C42.7042263,163.924311 37.8109168,166.164317 32.6108401,166.164317 C28.4171093,166.164317 24.3617978,164.679705 21.196859,161.975992 C17.2126277,158.572978 15.192454,153.763883 15.0951864,148.894955 C15.7835419,139.695599 23.4115679,132.399686 32.7866701,132.399686 C42.6144408,132.399686 50.6090909,140.39116 50.6090909,150.215026 C50.6090909,152.193261 50.2087972,154.066789 49.6064862,155.850567 L46.0412538,160.016454 Z M125.72214,231.490969 L79.3703779,231.490969 L37.582712,182.592274 C48.8208631,180.935642 58.2109295,173.583636 62.7076864,163.550353 L65.1880107,160.644703 L125.72214,231.490969 Z M57.3542263,128.443215 C51.9670965,122.13455 44.4101507,118.181818 36.2209653,117.265622 L99.4112487,43.315508 C103.04382,55.3270259 113.230733,64.4889869 125.800702,66.6878576 L65.1880107,137.612655 L57.3542263,128.443215 Z"/>
    </g>
  </g>
</svg>
