<?xml version="1.0" encoding="UTF-8"?>
<svg width="512px" height="512px" viewBox="0 0 512 512" version="1.1" xmlns="http://www.w3.org/2000/svg" xmlns:xlink="http://www.w3.org/1999/xlink">
    <!-- Generator: Sketch 47.1 (45422) - http://www.bohemiancoding.com/sketch -->
    <title>icon-mask</title>
    <desc>Created with Sketch.</desc>
    <defs></defs>
    <g id="Page-1" stroke="none" stroke-width="1" fill="none" fill-rule="evenodd">
        <g id="icon-mask" fill-rule="nonzero" fill="#FFFFFF">
            <g id="Group" transform="translate(6.000000, 0.000000)">
                <g>
                    <rect id="Rectangle-path" transform="translate(130.819383, 342.273128) rotate(-130.733675) translate(-130.819383, -342.273128) " x="92.4757709" y="329.303965" width="76.6872247" height="25.938326"></rect>
                    <rect id="Rectangle-path" transform="translate(145.480176, 148.299559) rotate(-49.286224) translate(-145.480176, -148.299559) " x="89.092511" y="135.330396" width="112.77533" height="25.938326"></rect>
                    <path d="M374.275028,183.156651 C374.581215,182.295053 374.938433,181.452601 375.346682,180.635678 C375.518912,180.284657 375.691142,179.940017 375.882509,179.60176 C376.514019,178.510402 377.202939,177.450955 378.032195,176.468095 L400.052125,150.179774 C400.08402,150.141481 400.122293,150.10957 400.147809,150.077659 C400.957928,149.126709 401.857352,148.29064 402.775912,147.518392 C403.088477,147.263104 403.401043,147.014198 403.713609,146.778056 C404.523728,146.171746 405.37212,145.629258 406.239649,145.150593 C406.469289,145.022949 406.679793,144.869776 406.915812,144.748514 C414.404629,140.995774 423.743325,141.768022 430.562359,147.486481 L483.200965,191.64499 L499.594714,172.089899 L446.956108,127.925009 C435.780292,118.562308 421.497956,115.281852 408.159695,117.700709 L261.617441,13.8366304 C251.589825,5.23341186 238.596025,0 224.377478,0 C203.60781,0 185.440729,11.1433379 175.381219,27.7307007 L13.4084281,217.461027 C5.30085811,226.951373 1.02700139,238.413821 0.287050078,250.010296 C0.0893044687,252.090897 -0.0255155625,254.171497 0.00637889062,256.264862 C0.00637889062,256.290391 0,256.328684 0,256.360595 C0,273.305361 7.59725873,288.482256 19.538542,298.751231 L102.438605,395.862932 C53.6464701,401.855827 15.6537976,444.96127 15.6537976,497.161363 L15.6537976,512 L41.1693601,512 L41.1693601,497.161363 C41.1693601,454.955811 73.8739323,420.613141 114.067322,420.613141 L228.153781,420.613141 C268.347171,420.613141 301.051743,454.955811 301.051743,497.161363 L301.051743,512 L326.567305,512 L326.567305,497.161363 C326.567305,448.752303 293.88187,408.199743 250.218364,397.764831 L127.93503,254.522518 L243.577938,119.06012 L347.598508,192.774641 C347.624023,193.361804 347.611266,193.948967 347.662297,194.529748 C348.772224,207.109083 354.691834,218.482181 364.323959,226.562058 L416.968943,270.720566 L433.362692,251.165476 L380.711329,207.000586 C376.303516,203.305287 373.586108,198.084639 373.075797,192.295975 C372.839778,189.53886 373.145965,186.832804 373.898674,184.260773 C374.000736,183.877841 374.141072,183.520437 374.275028,183.156651 Z M380.717708,133.534971 C380.641161,133.61794 380.570994,133.681762 380.494447,133.771113 L358.468137,160.065817 C357.007372,161.80816 355.737972,163.665383 354.557878,165.567281 C354.4303,165.76513 354.270827,165.937449 354.156007,166.135298 L261.821566,100.698503 C273.520451,90.5699363 281.0603,75.8206499 281.615263,59.2907271 L382.924804,131.096967 C382.165716,131.875597 381.432144,132.698902 380.717708,133.534971 Z M224.377478,25.5288384 C241.919427,25.5288384 256.195384,39.8058412 256.195384,57.3632998 C256.195384,74.9143762 241.919427,89.191379 224.377478,89.191379 C206.835528,89.191379 192.559571,74.9143762 192.559571,57.3632998 C192.553192,39.8058412 206.835528,25.5288384 224.377478,25.5288384 Z M78.5050069,273.094748 C72.8150365,279.764157 64.4714475,283.587101 55.6047896,283.587101 C48.4540532,283.587101 41.5393357,281.053364 36.1427943,276.439026 C29.3492758,270.631215 25.9046748,262.423694 25.7388237,254.114057 C26.9125395,238.413821 39.9190975,225.962131 55.9045974,225.962131 C72.6619431,225.962131 86.2936324,239.600912 86.2936324,256.366977 C86.2936324,259.743166 85.6110911,262.940653 84.5840897,265.984967 L78.5050069,273.094748 Z M214.368998,395.07792 L135.334543,395.07792 L64.0823352,311.624148 C83.2445226,308.796829 99.2555381,296.249405 106.922965,279.125936 L111.152169,274.16696 L214.368998,395.07792 Z M97.7947722,219.209753 C88.6091697,208.442965 75.7238106,201.69697 61.760419,200.133328 L169.506261,73.9251337 C175.700163,94.4247909 193.069883,110.061204 214.502955,113.813944 L111.152169,234.858931 L97.7947722,219.209753 Z" id="Shape"></path>
                </g>
            </g>
        </g>
    </g>
</svg>